<mxfile host="app.diagrams.net" modified="2024-03-10T15:54:23.034Z" agent="Mozilla/5.0 (Windows NT 10.0; Win64; x64) AppleWebKit/537.36 (KHTML, like Gecko) Chrome/122.0.0.0 Safari/537.36" etag="e3rv1P-BvCWWwHAgpbSX" version="24.0.4" type="github" pages="2">
  <diagram name="Page-1" id="BqTbqD4QVBH_AWJFKeq2">
    <mxGraphModel dx="954" dy="1658" grid="1" gridSize="10" guides="1" tooltips="1" connect="1" arrows="1" fold="1" page="1" pageScale="1" pageWidth="850" pageHeight="1100" math="0" shadow="0">
      <root>
        <mxCell id="0" />
        <mxCell id="1" parent="0" />
        <mxCell id="oTxziVp3oFoIKGSsmGhJ-4" value="" style="edgeStyle=orthogonalEdgeStyle;rounded=0;orthogonalLoop=1;jettySize=auto;html=1;dashed=1;dashPattern=8 8;endArrow=classic;endFill=1;flowAnimation=1;shadow=1;textShadow=1;shadowColor=#66FFFF;enumerate=0;orthogonal=0;ignoreEdge=0;noJump=1;labelBackgroundColor=none;strokeColor=#A8201A;fontColor=default;metaEdit=1;backgroundOutline=1;fixDash=1;snapToPoint=1;strokeWidth=3;jumpStyle=gap;" parent="1" source="oTxziVp3oFoIKGSsmGhJ-1" target="oTxziVp3oFoIKGSsmGhJ-3" edge="1">
          <mxGeometry relative="1" as="geometry" />
        </mxCell>
        <mxCell id="oTxziVp3oFoIKGSsmGhJ-1" value="" style="rounded=1;whiteSpace=wrap;html=1;fillColor=#FAE5C7;strokeColor=#0F8B8D;enumerate=1;comic=0;treeMoving=0;noLabel=0;portConstraintRotation=0;labelBackgroundColor=none;fontColor=#143642;" parent="1" vertex="1">
          <mxGeometry x="70" y="-390" width="120" height="60" as="geometry" />
        </mxCell>
        <mxCell id="oTxziVp3oFoIKGSsmGhJ-6" value="" style="edgeStyle=orthogonalEdgeStyle;rounded=0;orthogonalLoop=1;jettySize=auto;html=1;dashed=1;dashPattern=8 8;endArrow=classic;endFill=1;flowAnimation=1;shadow=1;textShadow=1;shadowColor=#66FFFF;enumerate=0;orthogonal=0;ignoreEdge=0;noJump=1;labelBackgroundColor=none;strokeColor=#A8201A;fontColor=default;metaEdit=1;backgroundOutline=1;fixDash=1;snapToPoint=1;strokeWidth=3;jumpStyle=gap;" parent="1" source="oTxziVp3oFoIKGSsmGhJ-3" target="oTxziVp3oFoIKGSsmGhJ-5" edge="1">
          <mxGeometry relative="1" as="geometry" />
        </mxCell>
        <mxCell id="oTxziVp3oFoIKGSsmGhJ-3" value="" style="whiteSpace=wrap;html=1;fillColor=#FAE5C7;strokeColor=#0F8B8D;rounded=1;enumerate=1;comic=0;treeMoving=0;noLabel=0;portConstraintRotation=0;labelBackgroundColor=none;fontColor=#143642;" parent="1" vertex="1">
          <mxGeometry x="270" y="-390" width="120" height="60" as="geometry" />
        </mxCell>
        <mxCell id="oTxziVp3oFoIKGSsmGhJ-5" value="" style="ellipse;whiteSpace=wrap;html=1;fillColor=#FAE5C7;strokeColor=#0F8B8D;rounded=1;enumerate=1;comic=0;treeMoving=0;noLabel=0;portConstraintRotation=0;labelBackgroundColor=none;fontColor=#143642;" parent="1" vertex="1">
          <mxGeometry x="490" y="-400" width="80" height="80" as="geometry" />
        </mxCell>
      </root>
    </mxGraphModel>
  </diagram>
  <diagram id="QN-_ldrKTyyqsJbAH1mo" name="Page-2">
    <mxGraphModel dx="954" dy="1658" grid="1" gridSize="10" guides="1" tooltips="1" connect="1" arrows="1" fold="1" page="1" pageScale="1" pageWidth="850" pageHeight="1100" math="0" shadow="0">
      <root>
        <mxCell id="0" />
        <mxCell id="1" parent="0" />
        <mxCell id="838t4mFNMkR0PC2qHRWG-1" value="Pool" style="swimlane;html=1;childLayout=stackLayout;resizeParent=1;resizeParentMax=0;horizontal=0;startSize=20;horizontalStack=0;whiteSpace=wrap;" vertex="1" parent="1">
          <mxGeometry x="170" y="-10" width="650" height="640" as="geometry" />
        </mxCell>
        <mxCell id="838t4mFNMkR0PC2qHRWG-2" value="Lane 1" style="swimlane;html=1;startSize=20;horizontal=0;" vertex="1" parent="838t4mFNMkR0PC2qHRWG-1">
          <mxGeometry x="20" width="630" height="110" as="geometry" />
        </mxCell>
        <mxCell id="838t4mFNMkR0PC2qHRWG-3" value="Lane 2" style="swimlane;html=1;startSize=20;horizontal=0;" vertex="1" parent="838t4mFNMkR0PC2qHRWG-1">
          <mxGeometry x="20" y="110" width="630" height="120" as="geometry" />
        </mxCell>
        <mxCell id="838t4mFNMkR0PC2qHRWG-4" value="Lane 3" style="swimlane;html=1;startSize=20;horizontal=0;" vertex="1" parent="838t4mFNMkR0PC2qHRWG-1">
          <mxGeometry x="20" y="230" width="630" height="410" as="geometry" />
        </mxCell>
        <mxCell id="838t4mFNMkR0PC2qHRWG-6" value="Cross-Functional Flowchart" style="shape=table;childLayout=tableLayout;startSize=40;collapsible=0;recursiveResize=0;expand=0;fontSize=16;" vertex="1" parent="838t4mFNMkR0PC2qHRWG-4">
          <mxGeometry x="85" y="10" width="400" height="400" as="geometry" />
        </mxCell>
        <mxCell id="838t4mFNMkR0PC2qHRWG-7" value="Actor 1" style="shape=tableRow;horizontal=0;swimlaneHead=0;swimlaneBody=0;top=0;left=0;strokeColor=inherit;bottom=0;right=0;dropTarget=0;fontStyle=0;fillColor=none;points=[[0,0.5],[1,0.5]];portConstraint=eastwest;startSize=40;collapsible=0;recursiveResize=0;expand=0;fontSize=16;" vertex="1" parent="838t4mFNMkR0PC2qHRWG-6">
          <mxGeometry y="40" width="400" height="120" as="geometry" />
        </mxCell>
        <mxCell id="838t4mFNMkR0PC2qHRWG-8" value="Phase 1" style="swimlane;swimlaneHead=0;swimlaneBody=0;fontStyle=0;strokeColor=inherit;connectable=0;fillColor=none;startSize=40;collapsible=0;recursiveResize=0;expand=0;fontSize=16;" vertex="1" parent="838t4mFNMkR0PC2qHRWG-7">
          <mxGeometry x="40" width="120" height="120" as="geometry">
            <mxRectangle width="120" height="120" as="alternateBounds" />
          </mxGeometry>
        </mxCell>
        <mxCell id="838t4mFNMkR0PC2qHRWG-9" value="Phase 2" style="swimlane;swimlaneHead=0;swimlaneBody=0;fontStyle=0;strokeColor=inherit;connectable=0;fillColor=none;startSize=40;collapsible=0;recursiveResize=0;expand=0;fontSize=16;" vertex="1" parent="838t4mFNMkR0PC2qHRWG-7">
          <mxGeometry x="160" width="120" height="120" as="geometry">
            <mxRectangle width="120" height="120" as="alternateBounds" />
          </mxGeometry>
        </mxCell>
        <mxCell id="838t4mFNMkR0PC2qHRWG-10" value="Phase 3" style="swimlane;swimlaneHead=0;swimlaneBody=0;fontStyle=0;strokeColor=inherit;connectable=0;fillColor=none;startSize=40;collapsible=0;recursiveResize=0;expand=0;fontSize=16;" vertex="1" parent="838t4mFNMkR0PC2qHRWG-7">
          <mxGeometry x="280" width="120" height="120" as="geometry">
            <mxRectangle width="120" height="120" as="alternateBounds" />
          </mxGeometry>
        </mxCell>
        <mxCell id="838t4mFNMkR0PC2qHRWG-11" value="Actor 2" style="shape=tableRow;horizontal=0;swimlaneHead=0;swimlaneBody=0;top=0;left=0;strokeColor=inherit;bottom=0;right=0;dropTarget=0;fontStyle=0;fillColor=none;points=[[0,0.5],[1,0.5]];portConstraint=eastwest;startSize=40;collapsible=0;recursiveResize=0;expand=0;fontSize=16;" vertex="1" parent="838t4mFNMkR0PC2qHRWG-6">
          <mxGeometry y="160" width="400" height="120" as="geometry" />
        </mxCell>
        <mxCell id="838t4mFNMkR0PC2qHRWG-12" value="" style="swimlane;swimlaneHead=0;swimlaneBody=0;fontStyle=0;connectable=0;strokeColor=inherit;fillColor=none;startSize=0;collapsible=0;recursiveResize=0;expand=0;fontSize=16;" vertex="1" parent="838t4mFNMkR0PC2qHRWG-11">
          <mxGeometry x="40" width="120" height="120" as="geometry">
            <mxRectangle width="120" height="120" as="alternateBounds" />
          </mxGeometry>
        </mxCell>
        <mxCell id="838t4mFNMkR0PC2qHRWG-13" value="" style="swimlane;swimlaneHead=0;swimlaneBody=0;fontStyle=0;connectable=0;strokeColor=inherit;fillColor=none;startSize=0;collapsible=0;recursiveResize=0;expand=0;fontSize=16;" vertex="1" parent="838t4mFNMkR0PC2qHRWG-11">
          <mxGeometry x="160" width="120" height="120" as="geometry">
            <mxRectangle width="120" height="120" as="alternateBounds" />
          </mxGeometry>
        </mxCell>
        <mxCell id="838t4mFNMkR0PC2qHRWG-14" value="" style="swimlane;swimlaneHead=0;swimlaneBody=0;fontStyle=0;connectable=0;strokeColor=inherit;fillColor=none;startSize=0;collapsible=0;recursiveResize=0;expand=0;fontSize=16;" vertex="1" parent="838t4mFNMkR0PC2qHRWG-11">
          <mxGeometry x="280" width="120" height="120" as="geometry">
            <mxRectangle width="120" height="120" as="alternateBounds" />
          </mxGeometry>
        </mxCell>
        <mxCell id="838t4mFNMkR0PC2qHRWG-15" value="Actor 3" style="shape=tableRow;horizontal=0;swimlaneHead=0;swimlaneBody=0;top=0;left=0;strokeColor=inherit;bottom=0;right=0;dropTarget=0;fontStyle=0;fillColor=none;points=[[0,0.5],[1,0.5]];portConstraint=eastwest;startSize=40;collapsible=0;recursiveResize=0;expand=0;fontSize=16;" vertex="1" parent="838t4mFNMkR0PC2qHRWG-6">
          <mxGeometry y="280" width="400" height="120" as="geometry" />
        </mxCell>
        <mxCell id="838t4mFNMkR0PC2qHRWG-16" value="" style="swimlane;swimlaneHead=0;swimlaneBody=0;fontStyle=0;connectable=0;strokeColor=inherit;fillColor=none;startSize=0;collapsible=0;recursiveResize=0;expand=0;fontSize=16;" vertex="1" parent="838t4mFNMkR0PC2qHRWG-15">
          <mxGeometry x="40" width="120" height="120" as="geometry">
            <mxRectangle width="120" height="120" as="alternateBounds" />
          </mxGeometry>
        </mxCell>
        <mxCell id="838t4mFNMkR0PC2qHRWG-17" value="" style="swimlane;swimlaneHead=0;swimlaneBody=0;fontStyle=0;connectable=0;strokeColor=inherit;fillColor=none;startSize=0;collapsible=0;recursiveResize=0;expand=0;fontSize=16;" vertex="1" parent="838t4mFNMkR0PC2qHRWG-15">
          <mxGeometry x="160" width="120" height="120" as="geometry">
            <mxRectangle width="120" height="120" as="alternateBounds" />
          </mxGeometry>
        </mxCell>
        <mxCell id="838t4mFNMkR0PC2qHRWG-18" value="" style="swimlane;swimlaneHead=0;swimlaneBody=0;fontStyle=0;connectable=0;strokeColor=inherit;fillColor=none;startSize=0;collapsible=0;recursiveResize=0;expand=0;fontSize=16;" vertex="1" parent="838t4mFNMkR0PC2qHRWG-15">
          <mxGeometry x="280" width="120" height="120" as="geometry">
            <mxRectangle width="120" height="120" as="alternateBounds" />
          </mxGeometry>
        </mxCell>
      </root>
    </mxGraphModel>
  </diagram>
</mxfile>
